<?xml version="1.0" encoding="UTF-8" standalone="no"?>
<!-- Created with Inkscape (http://www.inkscape.org/) -->

<svg
   xmlns:dc="http://purl.org/dc/elements/1.1/"
   xmlns:cc="http://creativecommons.org/ns#"
   xmlns:rdf="http://www.w3.org/1999/02/22-rdf-syntax-ns#"
   xmlns:svg="http://www.w3.org/2000/svg"
   xmlns="http://www.w3.org/2000/svg"
   xmlns:sodipodi="http://sodipodi.sourceforge.net/DTD/sodipodi-0.dtd"
   xmlns:inkscape="http://www.inkscape.org/namespaces/inkscape"
   width="744.09448819"
   height="1052.3622047"
   id="svg2"
   version="1.1"
   inkscape:version="0.48.1 "
   sodipodi:docname="New document 1">
  <defs
     id="defs4" />
  <sodipodi:namedview
     id="base"
     pagecolor="#ffffff"
     bordercolor="#666666"
     borderopacity="1.0"
     inkscape:pageopacity="0.0"
     inkscape:pageshadow="2"
     inkscape:zoom="0.7"
     inkscape:cx="430.70253"
     inkscape:cy="598.38761"
     inkscape:document-units="px"
     inkscape:current-layer="layer1"
     showgrid="false"
     inkscape:window-width="1920"
     inkscape:window-height="1018"
     inkscape:window-x="-8"
     inkscape:window-y="-8"
     inkscape:window-maximized="1" />
  <metadata
     id="metadata7">
    <rdf:RDF>
      <cc:Work
         rdf:about="">
        <dc:format>image/svg+xml</dc:format>
        <dc:type
           rdf:resource="http://purl.org/dc/dcmitype/StillImage" />
        <dc:title></dc:title>
      </cc:Work>
    </rdf:RDF>
  </metadata>
  <g
     inkscape:label="Layer 1"
     inkscape:groupmode="layer"
     id="layer1">
    <rect
       style="fill:#cccccc;fill-opacity:1;stroke:none"
       id="rect3005-5"
       width="268.83359"
       height="32.330978"
       x="463.57275"
       y="-307.50482"
       transform="matrix(0.5,0.8660254,-0.8660254,0.5,0,0)" />
    <rect
       style="fill:#cccccc;fill-opacity:1;stroke:none"
       id="rect3005-3"
       width="268.83359"
       height="32.330978"
       x="529.12695"
       y="30.522005"
       transform="matrix(0.8660254,0.5,-0.5,0.8660254,0,0)" />
    <rect
       style="fill:#cccccc;fill-opacity:1;stroke:none"
       id="rect3005-6"
       width="268.83359"
       height="32.330978"
       x="416.88522"
       y="356.03897" />
    <rect
       style="fill:#cccccc;fill-opacity:1;stroke:none"
       id="rect3005-2"
       width="268.83359"
       height="32.330978"
       x="156.92256"
       y="581.82404"
       transform="matrix(0.8660254,-0.5,0.5,0.8660254,0,0)" />
    <path
       sodipodi:type="arc"
       style="fill:#cccccc;fill-opacity:1;stroke:none"
       id="path2985"
       sodipodi:cx="395"
       sodipodi:cy="405.93362"
       sodipodi:rx="295"
       sodipodi:ry="295"
       d="m 690,405.93362 a 295,295 0 1 1 -590,0 295,295 0 1 1 590,0 z"
       transform="matrix(0,0.3430512,-0.3430512,0,690.77945,238.55911)" />
    <rect
       style="fill:#cccccc;fill-opacity:1;stroke:none"
       id="rect3005"
       width="268.83359"
       height="32.330978"
       x="-506.62128"
       y="535.13641"
       transform="matrix(0,-1,1,0,0,0)" />
    <rect
       style="fill:#cccccc;fill-opacity:1;stroke:none"
       id="rect3005-1"
       width="268.83356"
       height="32.330978"
       x="-181.10425"
       y="647.3783"
       transform="matrix(0.5,-0.8660254,0.8660254,0.5,0,0)" />
    <path
       sodipodi:type="arc"
       style="fill:#ffffff;fill-opacity:1;stroke:none"
       id="path2985-1"
       sodipodi:cx="395"
       sodipodi:cy="405.93362"
       sodipodi:rx="295"
       sodipodi:ry="295"
       d="m 690,405.93362 a 295,295 0 1 1 -590,0 295,295 0 1 1 590,0 z"
       transform="matrix(0,0.18755027,-0.18755027,0,627.65626,299.98203)" />
    <rect
       style="fill:#cccccc;fill-opacity:1;stroke:none"
       id="rect3005-5-3"
       width="237.8542"
       height="28.60528"
       x="532.10144"
       y="45.648342"
       transform="matrix(0.64168659,0.76696696,-0.76696696,0.64168659,0,0)" />
    <rect
       style="fill:#cccccc;fill-opacity:1;stroke:none"
       id="rect3005-3-5"
       width="237.8542"
       height="28.60528"
       x="414.90472"
       y="363.13068"
       transform="matrix(0.93920037,0.34336958,-0.34336958,0.93920037,0,0)" />
    <rect
       style="fill:#cccccc;fill-opacity:1;stroke:none"
       id="rect3005-6-9"
       width="237.8542"
       height="28.60528"
       x="154.66798"
       y="579.48016"
       transform="matrix(0.98505617,-0.17223342,0.17223342,0.98505617,0,0)" />
    <rect
       style="fill:#cccccc;fill-opacity:1;stroke:none"
       id="rect3005-2-3"
       width="237.8542"
       height="28.60528"
       x="-178.87802"
       y="636.72595"
       transform="matrix(0.76696696,-0.64168659,0.64168659,0.76696696,0,0)" />
    <path
       sodipodi:type="arc"
       style="fill:#cccccc;fill-opacity:1;stroke:none"
       id="path2985-19"
       sodipodi:cx="395"
       sodipodi:cy="405.93362"
       sodipodi:rx="295"
       sodipodi:ry="295"
       d="m 690,405.93362 a 295,295 0 1 1 -590,0 295,295 0 1 1 590,0 z"
       transform="matrix(0.05227615,0.29898352,-0.29898352,0.05227615,472.97063,400.05527)" />
    <rect
       style="fill:#cccccc;fill-opacity:1;stroke:none"
       id="rect3005-35"
       width="237.8542"
       height="28.60528"
       x="-712.7099"
       y="259.29242"
       transform="matrix(-0.17223342,-0.98505617,0.98505617,-0.17223342,0,0)" />
    <rect
       style="fill:#cccccc;fill-opacity:1;stroke:none"
       id="rect3005-1-3"
       width="237.85416"
       height="28.60528"
       x="-496.36047"
       y="519.52911"
       transform="matrix(0.34336958,-0.93920037,0.93920037,0.34336958,0,0)" />
    <path
       sodipodi:type="arc"
       style="fill:#ffffff;fill-opacity:1;stroke:none"
       id="path2985-1-6"
       sodipodi:cx="395"
       sodipodi:cy="405.93362"
       sodipodi:rx="295"
       sodipodi:ry="295"
       d="m 690,405.93362 a 295,295 0 1 1 -590,0 295,295 0 1 1 590,0 z"
       transform="matrix(0.02858001,0.16345794,-0.16345794,0.02858001,427.3161,463.20701)" />
    <rect
       style="fill:#cccccc;fill-opacity:1;stroke:none"
       id="rect3005-5-36"
       width="195.9296"
       height="23.563257"
       x="330.26642"
       y="-145.39038"
       transform="matrix(0.37946308,0.92520688,-0.92520688,0.37946308,0,0)" />
    <rect
       style="fill:#cccccc;fill-opacity:1;stroke:none"
       id="rect3005-3-3"
       width="195.9296"
       height="23.563257"
       x="339.69864"
       y="86.625412"
       transform="matrix(0.7912281,0.61152113,-0.61152113,0.7912281,0,0)" />
    <rect
       style="fill:#cccccc;fill-opacity:1;stroke:none"
       id="rect3005-6-3"
       width="195.9296"
       height="23.563257"
       x="231.85941"
       y="292.2731"
       transform="matrix(0.9909842,0.13397878,-0.13397878,0.9909842,0,0)" />
    <rect
       style="fill:#cccccc;fill-opacity:1;stroke:none"
       id="rect3005-2-5"
       width="195.9296"
       height="23.563257"
       x="35.643925"
       y="416.44958"
       transform="matrix(0.92520688,-0.37946308,0.37946308,0.92520688,0,0)" />
    <path
       sodipodi:type="arc"
       style="fill:#cccccc;fill-opacity:1;stroke:none"
       id="path2985-6"
       sodipodi:cx="395"
       sodipodi:cy="405.93362"
       sodipodi:rx="295"
       sodipodi:ry="295"
       d="m 690,405.93362 a 295,295 0 1 1 -590,0 295,295 0 1 1 590,0 z"
       transform="matrix(-0.03349742,0.24776627,-0.24776627,-0.03349742,399.90011,262.59784)" />
    <rect
       style="fill:#cccccc;fill-opacity:1;stroke:none"
       id="rect3005-4"
       width="195.9296"
       height="23.563257"
       x="-402.01953"
       y="318.04251"
       transform="matrix(0.13397878,-0.9909842,0.9909842,0.13397878,0,0)" />
    <rect
       style="fill:#cccccc;fill-opacity:1;stroke:none"
       id="rect3005-1-2"
       width="195.92957"
       height="23.563257"
       x="-196.37178"
       y="425.88184"
       transform="matrix(0.61152113,-0.7912281,0.7912281,0.61152113,0,0)" />
    <path
       sodipodi:type="arc"
       style="fill:#ffffff;fill-opacity:1;stroke:none"
       id="path2985-1-3"
       sodipodi:cx="395"
       sodipodi:cy="405.93362"
       sodipodi:rx="295"
       sodipodi:ry="295"
       d="m 690,405.93362 a 295,295 0 1 1 -590,0 295,295 0 1 1 590,0 z"
       transform="matrix(-0.01831345,0.13545684,-0.13545684,-0.01831345,348.31216,300.7964)" />
    <rect
       style="fill:#cccccc;fill-opacity:1;stroke:none"
       id="rect3005-5-5"
       width="241.49458"
       height="29.043081"
       x="406.00598"
       y="128.64088"
       transform="matrix(0.5,0.8660254,-0.8660254,0.5,0,0)" />
    <rect
       style="fill:#cccccc;fill-opacity:1;stroke:none"
       id="rect3005-3-0"
       width="241.49458"
       height="29.043081"
       x="263.85318"
       y="372.83731"
       transform="matrix(0.8660254,0.5,-0.5,0.8660254,0,0)" />
    <rect
       style="fill:#cccccc;fill-opacity:1;stroke:none"
       id="rect3005-6-5"
       width="241.49458"
       height="29.043081"
       x="18.647152"
       y="513.24139" />
    <rect
       style="fill:#cccccc;fill-opacity:1;stroke:none"
       id="rect3005-2-7"
       width="241.49458"
       height="29.043081"
       x="-263.90964"
       y="512.23169"
       transform="matrix(0.8660254,-0.5,0.5,0.8660254,0,0)" />
    <path
       sodipodi:type="arc"
       style="fill:#cccccc;fill-opacity:1;stroke:none"
       id="path2985-15"
       sodipodi:cx="395"
       sodipodi:cy="405.93362"
       sodipodi:rx="295"
       sodipodi:ry="295"
       d="m 690,405.93362 a 295,295 0 1 1 -590,0 295,295 0 1 1 590,0 z"
       transform="matrix(0,0.30816465,-0.30816465,0,264.68765,407.70859)" />
    <rect
       style="fill:#cccccc;fill-opacity:1;stroke:none"
       id="rect3005-29"
       width="241.49458"
       height="29.043081"
       x="-648.51013"
       y="124.87278"
       transform="matrix(0,-1,1,0,0,0)" />
    <rect
       style="fill:#cccccc;fill-opacity:1;stroke:none"
       id="rect3005-1-24"
       width="241.49455"
       height="29.043081"
       x="-508.10617"
       y="370.07898"
       transform="matrix(0.5,-0.8660254,0.8660254,0.5,0,0)" />
    <path
       sodipodi:type="arc"
       style="fill:#ffffff;fill-opacity:1;stroke:none"
       id="path2985-1-2"
       sodipodi:cx="395"
       sodipodi:cy="405.93362"
       sodipodi:rx="295"
       sodipodi:ry="295"
       d="m 690,405.93362 a 295,295 0 1 1 -590,0 295,295 0 1 1 590,0 z"
       transform="matrix(0,0.16847737,-0.16847737,0,207.98376,462.8851)" />
    <rect
       style="fill:#cccccc;fill-opacity:1;stroke:none"
       id="rect3005-5-6"
       width="262.13641"
       height="31.525551"
       x="155.16679"
       y="-343.728"
       transform="matrix(0.35455343,0.93503576,-0.93503576,0.35455343,0,0)" />
    <rect
       style="fill:#cccccc;fill-opacity:1;stroke:none"
       id="rect3005-3-7"
       width="262.13641"
       height="31.525551"
       x="280.80127"
       y="-156.67152"
       transform="matrix(0.77457015,0.63248801,-0.63248801,0.77457015,0,0)" />
    <rect
       style="fill:#cccccc;fill-opacity:1;stroke:none"
       id="rect3005-6-51"
       width="262.13641"
       height="31.525551"
       x="296.07556"
       y="68.141396"
       transform="matrix(0.98704143,0.16046561,-0.16046561,0.98704143,0,0)" />
    <rect
       style="fill:#cccccc;fill-opacity:1;stroke:none"
       id="rect3005-2-1"
       width="262.13641"
       height="31.525551"
       x="196.89706"
       y="270.47226"
       transform="matrix(0.93503576,-0.35455343,0.35455343,0.93503576,0,0)" />
    <path
       sodipodi:type="arc"
       style="fill:#cccccc;fill-opacity:1;stroke:none"
       id="path2985-65"
       sodipodi:cx="395"
       sodipodi:cy="405.93362"
       sodipodi:rx="295"
       sodipodi:ry="295"
       d="m 690,405.93362 a 295,295 0 1 1 -590,0 295,295 0 1 1 590,0 z"
       transform="matrix(-0.05367657,0.33017044,-0.33017044,-0.05367657,563.29648,44.555256)" />
    <rect
       style="fill:#cccccc;fill-opacity:1;stroke:none"
       id="rect3005-7"
       width="262.13641"
       height="31.525551"
       x="-214.97243"
       y="411.38098"
       transform="matrix(0.16046561,-0.98704143,0.98704143,0.16046561,0,0)" />
    <rect
       style="fill:#cccccc;fill-opacity:1;stroke:none"
       id="rect3005-1-35"
       width="262.13638"
       height="31.525551"
       x="9.8405533"
       y="396.10669"
       transform="matrix(0.63248801,-0.77457015,0.77457015,0.63248801,0,0)" />
    <path
       sodipodi:type="arc"
       style="fill:#ffffff;fill-opacity:1;stroke:none"
       id="path2985-1-9"
       sodipodi:cx="395"
       sodipodi:cy="405.93362"
       sodipodi:rx="295"
       sodipodi:ry="295"
       d="m 690,405.93362 a 295,295 0 1 1 -590,0 295,295 0 1 1 590,0 z"
       transform="matrix(-0.02934563,0.18050821,-0.18050821,-0.02934563,492.93268,93.795116)" />
    <rect
       style="fill:#cccccc;fill-opacity:1;stroke:none"
       id="rect3005-5-36-5"
       width="140.92635"
       height="16.948351"
       x="256.4632"
       y="-11.614678"
       transform="matrix(0.37946308,0.92520688,-0.92520688,0.37946308,0,0)" />
    <rect
       style="fill:#cccccc;fill-opacity:1;stroke:none"
       id="rect3005-3-3-6"
       width="140.92635"
       height="16.948351"
       x="214.23357"
       y="152.26926"
       transform="matrix(0.7912281,0.61152113,-0.61152113,0.7912281,0,0)" />
    <rect
       style="fill:#cccccc;fill-opacity:1;stroke:none"
       id="rect3005-6-3-5"
       width="140.92635"
       height="16.948351"
       x="95.71978"
       y="273.08209"
       transform="matrix(0.9909842,0.13397878,-0.13397878,0.9909842,0,0)" />
    <rect
       style="fill:#cccccc;fill-opacity:1;stroke:none"
       id="rect3005-2-5-6"
       width="140.92635"
       height="16.948351"
       x="-67.322701"
       y="318.45218"
       transform="matrix(0.92520688,-0.37946308,0.37946308,0.92520688,0,0)" />
    <path
       sodipodi:type="arc"
       style="fill:#cccccc;fill-opacity:1;stroke:none"
       id="path2985-6-0"
       sodipodi:cx="395"
       sodipodi:cy="405.93362"
       sodipodi:rx="295"
       sodipodi:ry="295"
       d="m 690,405.93362 a 295,295 0 1 1 -590,0 295,295 0 1 1 590,0 z"
       transform="matrix(-0.02409371,0.17821094,-0.17821094,-0.02409371,208.80531,241.65166)" />
    <rect
       style="fill:#cccccc;fill-opacity:1;stroke:none"
       id="rect3005-4-8"
       width="140.92635"
       height="16.948351"
       x="-352.01941"
       y="157.70872"
       transform="matrix(0.13397878,-0.9909842,0.9909842,0.13397878,0,0)" />
    <rect
       style="fill:#cccccc;fill-opacity:1;stroke:none"
       id="rect3005-1-2-4"
       width="140.92632"
       height="16.948351"
       x="-231.20656"
       y="276.2226"
       transform="matrix(0.61152113,-0.7912281,0.7912281,0.61152113,0,0)" />
    <path
       sodipodi:type="arc"
       style="fill:#ffffff;fill-opacity:1;stroke:none"
       id="path2985-1-3-1"
       sodipodi:cx="395"
       sodipodi:cy="405.93362"
       sodipodi:rx="295"
       sodipodi:ry="295"
       d="m 690,405.93362 a 295,295 0 1 1 -590,0 295,295 0 1 1 590,0 z"
       transform="matrix(-0.01317232,0.09743009,-0.09743009,-0.01317232,171.69962,269.12674)" />
  </g>
</svg>
