<?xml version="1.0" encoding="UTF-8" standalone="no"?>
<!-- Created with Inkscape (http://www.inkscape.org/) -->

<svg
   xmlns:dc="http://purl.org/dc/elements/1.1/"
   xmlns:cc="http://creativecommons.org/ns#"
   xmlns:rdf="http://www.w3.org/1999/02/22-rdf-syntax-ns#"
   xmlns:svg="http://www.w3.org/2000/svg"
   xmlns="http://www.w3.org/2000/svg"
   xmlns:sodipodi="http://sodipodi.sourceforge.net/DTD/sodipodi-0.dtd"
   xmlns:inkscape="http://www.inkscape.org/namespaces/inkscape"
   id="svg2"
   version="1.1"
   inkscape:version="0.48.4 r9939"
   width="528.91852"
   height="389.48026"
   xml:space="preserve"
   sodipodi:docname="bee2.svg"><metadata
     id="metadata8"><rdf:RDF><cc:Work
         rdf:about=""><dc:format>image/svg+xml</dc:format><dc:type
           rdf:resource="http://purl.org/dc/dcmitype/StillImage" /><dc:title /></cc:Work></rdf:RDF></metadata><defs
     id="defs6"><clipPath
       clipPathUnits="userSpaceOnUse"
       id="clipPath16"><path
         d="M 0,500 500,500 500,0 0,0 0,500 z"
         id="path18"
         inkscape:connector-curvature="0" /></clipPath><clipPath
       clipPathUnits="userSpaceOnUse"
       id="clipPath24"><path
         d="m 285.397,444.954 159.439,0 0,-119.959 -159.439,0 0,119.959 z"
         id="path26"
         inkscape:connector-curvature="0" /></clipPath><clipPath
       clipPathUnits="userSpaceOnUse"
       id="clipPath156"><path
         d="m 279.094,463.438 160.82,0 0,-149.26 -160.82,0 0,149.26 z"
         id="path158"
         inkscape:connector-curvature="0" /></clipPath><filter
       id="filter3136"
       inkscape:label="Drop Shadow"
       color-interpolation-filters="sRGB"><feFlood
         id="feFlood3138"
         flood-opacity="0.4"
         flood-color="rgb(0,0,0)"
         result="flood" /><feComposite
         id="feComposite3140"
         in2="SourceGraphic"
         in="flood"
         operator="in"
         result="composite1" /><feGaussianBlur
         id="feGaussianBlur3142"
         stdDeviation="10"
         result="blur" /><feOffset
         id="feOffset3144"
         dx="0"
         dy="0"
         result="offset" /><feComposite
         id="feComposite3146"
         in2="offset"
         in="SourceGraphic"
         operator="over"
         result="composite2" /></filter></defs><sodipodi:namedview
     pagecolor="#ffffff"
     bordercolor="#666666"
     borderopacity="1"
     objecttolerance="10"
     gridtolerance="10"
     guidetolerance="10"
     inkscape:pageopacity="0"
     inkscape:pageshadow="2"
     inkscape:window-width="1650"
     inkscape:window-height="859"
     id="namedview4"
     showgrid="false"
     fit-margin-top="0"
     fit-margin-left="0"
     fit-margin-right="0"
     fit-margin-bottom="0"
     inkscape:zoom="1.5104"
     inkscape:cx="313.49628"
     inkscape:cy="208.58914"
     inkscape:window-x="117"
     inkscape:window-y="96"
     inkscape:window-maximized="0"
     inkscape:current-layer="g10" /><g
     id="g10"
     inkscape:groupmode="layer"
     inkscape:label="Bee 2"
     transform="matrix(1.25,0,0,-1.25,-100.85815,625.82303)"><g
       id="g12"
       style="filter:url(#filter3136)"><g
         id="g14"
         clip-path="url(#clipPath16)"><g
           id="g20"><g
             id="g22" /><g
             id="g28"><g
               clip-path="url(#clipPath24)"
               id="g30"
               style="opacity:0.75"><g
                 transform="translate(387.7871,338.291)"
                 id="g32"><path
                   d="M 0,0 C 41.911,20.353 65.734,57.754 53.214,83.537 40.693,109.319 -3.434,113.721 -45.343,93.368 -87.254,73.014 -111.075,35.613 -98.555,9.83 -86.034,-15.952 -41.91,-20.354 0,0"
                   style="fill:#b5e3ee;fill-opacity:1;fill-rule:nonzero;stroke:none"
                   id="path34"
                   inkscape:connector-curvature="0" /></g><g
                 transform="translate(387.7871,338.291)"
                 id="g36"><path
                   d="M 0,0 C 41.911,20.353 65.734,57.754 53.214,83.537 40.693,109.319 -3.434,113.721 -45.343,93.368 -87.254,73.014 -111.075,35.613 -98.555,9.83 -86.034,-15.952 -41.91,-20.354 0,0 z"
                   style="fill:none;stroke:#b5e3ee;stroke-width:1;stroke-linecap:butt;stroke-linejoin:miter;stroke-miterlimit:10;stroke-opacity:1;stroke-dasharray:none"
                   id="path38"
                   inkscape:connector-curvature="0" /></g></g></g></g><g
           id="g40"
           transform="translate(431.7842,270.1235)"><path
             d="m 0,0 c -10.526,-40.249 -68.882,-59.845 -130.343,-43.772 -61.46,16.074 -102.749,61.733 -92.222,101.981 10.526,40.249 68.88,59.845 130.342,43.771 C -30.763,85.906 10.526,40.248 0,0"
             style="fill:#373535;fill-opacity:1;fill-rule:nonzero;stroke:none"
             id="path42"
             inkscape:connector-curvature="0" /></g><g
           id="g44"
           transform="translate(431.7842,270.1235)"><path
             d="m 0,0 c -10.526,-40.249 -68.882,-59.845 -130.343,-43.772 -61.46,16.074 -102.749,61.733 -92.222,101.981 10.526,40.249 68.88,59.845 130.342,43.771 C -30.763,85.906 10.526,40.248 0,0 z"
             style="fill:none;stroke:#373535;stroke-width:1;stroke-linecap:butt;stroke-linejoin:miter;stroke-miterlimit:10;stroke-opacity:1;stroke-dasharray:none"
             id="path46"
             inkscape:connector-curvature="0" /></g><g
           id="g48"
           transform="translate(221.5742,276.603)"><path
             d="m 0,0 -5.605,8.782 -4.806,10.505 -1.894,6.231 L 12.304,43.301 3.654,-4.728 0,0 z"
             style="fill:#f8ea5e;fill-opacity:1;fill-rule:nonzero;stroke:none"
             id="path50"
             inkscape:connector-curvature="0" /></g><g
           id="g52"
           transform="translate(221.5742,276.603)"><path
             d="m 0,0 -5.605,8.782 -4.806,10.505 -1.894,6.231 L 12.304,43.301 3.654,-4.728 0,0 z"
             style="fill:none;stroke:#f8ea5e;stroke-width:1;stroke-linecap:butt;stroke-linejoin:miter;stroke-miterlimit:10;stroke-opacity:1;stroke-dasharray:none"
             id="path54"
             inkscape:connector-curvature="0" /></g><g
           id="g56"
           transform="translate(246.2041,356.0459)"><path
             d="m 0,0 c 0,-31.38 -24.167,-56.818 -53.977,-56.818 -29.811,0 -53.977,25.438 -53.977,56.818 0,31.379 24.166,56.818 53.977,56.818 C -24.167,56.818 0,31.379 0,0"
             style="fill:#f8ea5e;fill-opacity:1;fill-rule:nonzero;stroke:none"
             id="path58"
             inkscape:connector-curvature="0" /></g><g
           id="g60"
           transform="translate(246.2041,356.0459)"><path
             d="m 0,0 c 0,-31.38 -24.167,-56.818 -53.977,-56.818 -29.811,0 -53.977,25.438 -53.977,56.818 0,31.379 24.166,56.818 53.977,56.818 C -24.167,56.818 0,31.379 0,0 z"
             style="fill:none;stroke:#f8ea5e;stroke-width:1;stroke-linecap:butt;stroke-linejoin:miter;stroke-miterlimit:10;stroke-opacity:1;stroke-dasharray:none"
             id="path62"
             inkscape:connector-curvature="0" /></g><g
           id="g64"
           transform="translate(169.7036,374.1646)"><path
             d="m 0,0 c -2.035,-3.966 -6.319,-5.829 -9.569,-4.161 -3.25,1.667 -4.235,6.234 -2.201,10.2 2.035,3.965 6.319,5.828 9.569,4.16 C 1.049,8.532 2.035,3.965 0,0"
             style="fill:#373535;fill-opacity:1;fill-rule:nonzero;stroke:none"
             id="path66"
             inkscape:connector-curvature="0" /></g><g
           id="g68"
           transform="translate(169.7036,374.1646)"><path
             d="m 0,0 c -2.035,-3.966 -6.319,-5.829 -9.569,-4.161 -3.25,1.667 -4.235,6.234 -2.201,10.2 2.035,3.965 6.319,5.828 9.569,4.16 C 1.049,8.532 2.035,3.965 0,0 z"
             style="fill:none;stroke:#373535;stroke-width:1;stroke-linecap:butt;stroke-linejoin:miter;stroke-miterlimit:10;stroke-opacity:1;stroke-dasharray:none"
             id="path70"
             inkscape:connector-curvature="0" /></g><g
           id="g72"
           transform="translate(201.4058,367.0288)"><path
             d="m 0,0 c -1.593,-4.163 -5.65,-6.479 -9.062,-5.174 -3.411,1.306 -4.885,5.739 -3.292,9.902 1.592,4.163 5.649,6.479 9.061,5.173 C 0.118,8.596 1.593,4.162 0,0"
             style="fill:#373535;fill-opacity:1;fill-rule:nonzero;stroke:none"
             id="path74"
             inkscape:connector-curvature="0" /></g><g
           id="g76"
           transform="translate(201.4058,367.0288)"><path
             d="m 0,0 c -1.593,-4.163 -5.65,-6.479 -9.062,-5.174 -3.411,1.306 -4.885,5.739 -3.292,9.902 1.592,4.163 5.649,6.479 9.061,5.173 C 0.118,8.596 1.593,4.162 0,0 z"
             style="fill:none;stroke:#373535;stroke-width:1;stroke-linecap:butt;stroke-linejoin:miter;stroke-miterlimit:10;stroke-opacity:1;stroke-dasharray:none"
             id="path78"
             inkscape:connector-curvature="0" /></g><g
           id="g80"
           transform="translate(160.4219,380.5132)"><path
             d="M 0,0 C 0,1.839 1.521,3.33 3.397,3.33 5.273,3.33 6.794,1.839 6.794,0 6.794,-1.839 5.273,-3.33 3.397,-3.33 1.521,-3.33 0,-1.839 0,0"
             style="fill:#ffffff;fill-opacity:1;fill-rule:nonzero;stroke:none"
             id="path82"
             inkscape:connector-curvature="0" /></g><g
           id="g84"
           transform="translate(160.4219,380.5132)"><path
             d="M 0,0 C 0,1.839 1.521,3.33 3.397,3.33 5.273,3.33 6.794,1.839 6.794,0 6.794,-1.839 5.273,-3.33 3.397,-3.33 1.521,-3.33 0,-1.839 0,0 z"
             style="fill:none;stroke:#ffffff;stroke-width:1;stroke-linecap:butt;stroke-linejoin:miter;stroke-miterlimit:10;stroke-opacity:1;stroke-dasharray:none"
             id="path86"
             inkscape:connector-curvature="0" /></g><g
           id="g88"
           transform="translate(191.8311,372.7222)"><path
             d="M 0,0 C 0,1.839 1.521,3.33 3.397,3.33 5.273,3.33 6.795,1.839 6.795,0 6.795,-1.839 5.273,-3.33 3.397,-3.33 1.521,-3.33 0,-1.839 0,0"
             style="fill:#ffffff;fill-opacity:1;fill-rule:nonzero;stroke:none"
             id="path90"
             inkscape:connector-curvature="0" /></g><g
           id="g92"
           transform="translate(191.8311,372.7222)"><path
             d="M 0,0 C 0,1.839 1.521,3.33 3.397,3.33 5.273,3.33 6.795,1.839 6.795,0 6.795,-1.839 5.273,-3.33 3.397,-3.33 1.521,-3.33 0,-1.839 0,0 z"
             style="fill:none;stroke:#ffffff;stroke-width:1;stroke-linecap:butt;stroke-linejoin:miter;stroke-miterlimit:10;stroke-opacity:1;stroke-dasharray:none"
             id="path94"
             inkscape:connector-curvature="0" /></g><g
           id="g96"
           transform="translate(170.7627,408.1895)"><path
             d="m 0,0 c 0,28.638 -14.542,51.811 -32.513,51.811 l 0,-4.5 c 16.011,0 28.967,-21.958 28.967,-49.094"
             style="fill:#373535;fill-opacity:1;fill-rule:nonzero;stroke:#373535;stroke-width:1;stroke-linecap:butt;stroke-linejoin:miter;stroke-miterlimit:10;stroke-opacity:1;stroke-dasharray:none"
             id="path98"
             inkscape:connector-curvature="0" /></g><g
           id="g100"
           transform="translate(216.9014,393.3657)"><path
             d="m 0,0 c 5.275,28.715 20.876,49.869 34.88,47.296 l 0.82,4.462 C 19.207,54.789 1.225,32.009 -4.503,0.828"
             style="fill:#373535;fill-opacity:1;fill-rule:nonzero;stroke:#373535;stroke-width:1;stroke-linecap:butt;stroke-linejoin:miter;stroke-miterlimit:10;stroke-opacity:1;stroke-dasharray:none"
             id="path102"
             inkscape:connector-curvature="0" /></g><g
           id="g104"
           transform="translate(140.5,460)"><path
             d="m 0,0 c 0,-4.971 -3.806,-9 -8.5,-9 -4.694,0 -8.5,4.029 -8.5,9 0,4.971 3.806,9 8.5,9 C -3.806,9 0,4.971 0,0"
             style="fill:#f8ea5e;fill-opacity:1;fill-rule:nonzero;stroke:none"
             id="path106"
             inkscape:connector-curvature="0" /></g><g
           id="g108"
           transform="translate(140.5,460)"><path
             d="m 0,0 c 0,-4.971 -3.806,-9 -8.5,-9 -4.694,0 -8.5,4.029 -8.5,9 0,4.971 3.806,9 8.5,9 C -3.806,9 0,4.971 0,0 z"
             style="fill:none;stroke:#f8ea5e;stroke-width:1;stroke-linecap:butt;stroke-linejoin:miter;stroke-miterlimit:10;stroke-opacity:1;stroke-dasharray:none"
             id="path110"
             inkscape:connector-curvature="0" /></g><g
           id="g112"
           transform="translate(263.2041,442)"><path
             d="m 0,0 c 0,-4.971 -3.806,-9 -8.5,-9 -4.694,0 -8.5,4.029 -8.5,9 0,4.971 3.806,9 8.5,9 C -3.806,9 0,4.971 0,0"
             style="fill:#f8ea5e;fill-opacity:1;fill-rule:nonzero;stroke:none"
             id="path114"
             inkscape:connector-curvature="0" /></g><g
           id="g116"
           transform="translate(263.2041,442)"><path
             d="m 0,0 c 0,-4.971 -3.806,-9 -8.5,-9 -4.694,0 -8.5,4.029 -8.5,9 0,4.971 3.806,9 8.5,9 C -3.806,9 0,4.971 0,0 z"
             style="fill:none;stroke:#f8ea5e;stroke-width:1;stroke-linecap:butt;stroke-linejoin:miter;stroke-miterlimit:10;stroke-opacity:1;stroke-dasharray:none"
             id="path118"
             inkscape:connector-curvature="0" /></g><g
           id="g120"
           transform="translate(459.3516,274.6611)"><path
             d="m 0,0 -30.031,-2.786 2.375,13.51 L 0,0 z"
             style="fill:#373535;fill-opacity:1;fill-rule:nonzero;stroke:none"
             id="path122"
             inkscape:connector-curvature="0" /></g><g
           id="g124"
           transform="translate(459.3516,274.6611)"><path
             d="m 0,0 -30.031,-2.786 2.375,13.51 L 0,0 z"
             style="fill:none;stroke:#373535;stroke-width:1;stroke-linecap:butt;stroke-linejoin:miter;stroke-miterlimit:10;stroke-opacity:1;stroke-dasharray:none"
             id="path126"
             inkscape:connector-curvature="0" /></g><g
           id="g128"
           transform="translate(280.4658,233.2715)"><path
             d="M 0,0 -19.25,9.229 0,143.53 c 0,0.509 10.526,0.92 23.534,0.92 8.852,0 16.014,-0.747 16.014,-1.67 L 18.537,-6.261 11.767,-4.24 0,0 z"
             style="fill:#f8ea5e;fill-opacity:1;fill-rule:nonzero;stroke:none"
             id="path130"
             inkscape:connector-curvature="0" /></g><g
           id="g132"
           transform="translate(280.4658,233.2715)"><path
             d="M 0,0 -19.25,9.229 0,143.53 c 0,0.509 10.526,0.92 23.534,0.92 8.852,0 16.014,-0.747 16.014,-1.67 L 18.537,-6.261 11.767,-4.24 0,0 z"
             style="fill:none;stroke:#f8ea5e;stroke-width:1;stroke-linecap:butt;stroke-linejoin:miter;stroke-miterlimit:10;stroke-opacity:1;stroke-dasharray:none"
             id="path134"
             inkscape:connector-curvature="0" /></g><g
           id="g136"
           transform="translate(357.6914,220.8037)"><path
             d="M 0,0 -9.096,0 -18.191,-0.069 0,145.498 l 11.353,-4.81 5.678,-2.798 4.904,-2.648 9.745,-5.988 L 17.031,3.242 14.191,2.628 0,0 z"
             style="fill:#f8ea5e;fill-opacity:1;fill-rule:nonzero;stroke:none"
             id="path138"
             inkscape:connector-curvature="0" /></g><g
           id="g140"
           transform="translate(357.6914,220.8037)"><path
             d="M 0,0 -9.096,0 -18.191,-0.069 0,145.498 l 11.353,-4.81 5.678,-2.798 4.904,-2.648 9.745,-5.988 L 17.031,3.242 14.191,2.628 0,0 z"
             style="fill:none;stroke:#f8ea5e;stroke-width:1;stroke-linecap:butt;stroke-linejoin:miter;stroke-miterlimit:10;stroke-opacity:1;stroke-dasharray:none"
             id="path142"
             inkscape:connector-curvature="0" /></g><g
           id="g144"
           transform="translate(418.377,246.7305)"><path
             d="m 0,0 6.686,8.345 4.257,7.891 2.464,7.157 1.639,10.723 0,12.671 -4.103,10.422 -8.515,15.965 -4.856,6.459 -12.14,-91.034 6.07,4.021 L 0,0 z"
             style="fill:#f8ea5e;fill-opacity:1;fill-rule:nonzero;stroke:none"
             id="path146"
             inkscape:connector-curvature="0" /></g><g
           id="g148"
           transform="translate(418.377,246.7305)"><path
             d="m 0,0 6.686,8.345 4.257,7.891 2.464,7.157 1.639,10.723 0,12.671 -4.103,10.422 -8.515,15.965 -4.856,6.459 -12.14,-91.034 6.07,4.021 L 0,0 z"
             style="fill:none;stroke:#f8ea5e;stroke-width:1;stroke-linecap:butt;stroke-linejoin:miter;stroke-miterlimit:10;stroke-opacity:1;stroke-dasharray:none"
             id="path150"
             inkscape:connector-curvature="0" /></g><g
           id="g152"><g
             id="g154" /><g
             id="g160"><g
               clip-path="url(#clipPath156)"
               id="g162"
               style="opacity:0.78999299"><g
                 transform="translate(396.3809,345.2065)"
                 id="g164"><path
                   d="M 0,0 C 39.143,33.107 54.363,79.467 33.996,103.547 13.63,127.627 -34.612,120.31 -73.754,87.203 -112.898,54.097 -128.117,7.738 -107.751,-16.343 -87.384,-40.424 -39.142,-33.106 0,0"
                   style="fill:#c7eaf8;fill-opacity:1;fill-rule:nonzero;stroke:none"
                   id="path166"
                   inkscape:connector-curvature="0" /></g><g
                 transform="translate(396.3809,345.2065)"
                 id="g168"><path
                   d="M 0,0 C 39.143,33.107 54.363,79.467 33.996,103.547 13.63,127.627 -34.612,120.31 -73.754,87.203 -112.898,54.097 -128.117,7.738 -107.751,-16.343 -87.384,-40.424 -39.142,-33.106 0,0 z"
                   style="fill:none;stroke:#c7eaf8;stroke-width:1;stroke-linecap:butt;stroke-linejoin:miter;stroke-miterlimit:10;stroke-opacity:1;stroke-dasharray:none"
                   id="path170"
                   inkscape:connector-curvature="0" /></g></g></g></g><g
           id="g172"
           transform="translate(196.687,322.2407)"><path
             d="m 0,0 c -0.37,-3.068 -8.541,-4.603 -18.27,-3.432 -12.619,1.52 -22.236,7.677 -21.502,13.765"
             style="fill:none;stroke:#373535;stroke-width:1;stroke-linecap:butt;stroke-linejoin:miter;stroke-miterlimit:10;stroke-opacity:1;stroke-dasharray:none"
             id="path174"
             inkscape:connector-curvature="0" /></g></g></g></g></svg>